ffmpeg started on 2025-06-28 at 18:14:19
Report written to "D:\Convert\FFMetrics\reports\ssim_report-6.txt"
Log level: 32
Command line:
ffmpeg -hide_banner -nostdin -i "G:\\\xc0\xed\xe8\xec\xe5\\\xce\xed\xe3\xee\xe8\xed\xe3\xe8\\!_37_\xc7\xe8\xec\xe0_2025\\JamClub\\100 \xe4\xe5\xe2\xf3\xf8\xe5\xea, \xea\xee\xf2\xee\xf0\xfb\xe5 \xee\xf7\xe5\xed\xfc-\xee\xf7\xe5\xed\xfc-\xee\xf7\xe5\xed\xfc-\xee\xf7\xe5\xed\xfc-\xee\xf7\xe5\xed\xfc \xf1\xe8\xeb\xfc\xed\xee \xf2\xe5\xe1\xff \xeb\xfe\xe1\xff\xf2\\\xd2\xc2-2\\JamClub_The_100_Girlfriends_Who_Really_Really_Really_Really_REALLY_2_10_HEVC.mkv" -i "G:\\\xc0\xed\xe8\xec\xe5\\\xce\xed\xe3\xee\xe8\xed\xe3\xe8\\!_37_\xc7\xe8\xec\xe0_2025\\JamClub\\100 \xe4\xe5\xe2\xf3\xf8\xe5\xea, \xea\xee\xf2\xee\xf0\xfb\xe5 \xee\xf7\xe5\xed\xfc-\xee\xf7\xe5\xed\xfc-\xee\xf7\xe5\xed\xfc-\xee\xf7\xe5\xed\xfc-\xee\xf7\xe5\xed\xfc \xf1\xe8\xeb\xfc\xed\xee \xf2\xe5\xe1\xff \xeb\xfe\xe1\xff\xf2\\\xd2\xc2-2\\JamClub_The_100_Girlfriends_Who_Really_Really_Really_Really_REALLY_2_10.mp4" -lavfi "[0:v]settb=AVTB,setpts=PTS-STARTPTS,format=pix_fmts=yuv420p10,fps=24000/1001,scale=1920:1080:flags=bicubic[main];[1:v]settb=AVTB,setpts=PTS-STARTPTS,format=pix_fmts=yuv420p,fps=24000/1001,scale=1920:1080:flags=bicubic[ref];[main][ref]ssim=eof_action=endall:stats_file='D\\:/Convert/FFMetrics/logs/ssim_logfile-6.txt'" -f null -
Input #0, matroska,webm, from 'G:\Аниме\Онгоинги\!_37_Зима_2025\JamClub\100 девушек, которые очень-очень-очень-очень-очень сильно тебя любят\ТВ-2\JamClub_The_100_Girlfriends_Who_Really_Really_Really_Really_REALLY_2_10_HEVC.mkv':
  Metadata:
    COMPATIBLE_BRANDS: isomiso2avc1mp41
    MAJOR_BRAND     : isom
    MINOR_VERSION   : 512
    ENCODER         : Lavf61.7.100
  Duration: 00:24:12.23, start: -0.001000, bitrate: 1322 kb/s
  Stream #0:0: Video: hevc (Main 10), yuv420p10le(tv, bt709, progressive), 1920x1080 [SAR 1:1 DAR 16:9], 23.98 fps, 23.98 tbr, 1k tbn (default)
      Metadata:
        HANDLER_NAME    : VideoHandler
        VENDOR_ID       : [0][0][0][0]
        ENCODER         : Lavc61.19.100 libx265
        BPS             : 1125345
        DURATION        : 00:24:12.158708333
        NUMBER_OF_FRAMES: 34817
        NUMBER_OF_BYTES : 204272351
        _STATISTICS_WRITING_APP: mkvpropedit v66.0.0 ('Josie') 64-bit
        _STATISTICS_WRITING_DATE_UTC: 2025-06-28 14:19:46
        _STATISTICS_TAGS: BPS DURATION NUMBER_OF_FRAMES NUMBER_OF_BYTES
  Stream #0:1(eng): Audio: aac (LC), 48000 Hz, stereo, fltp (default)
      Metadata:
        HANDLER_NAME    : SoundHandler
        VENDOR_ID       : [0][0][0][0]
        ENCODER         : Lavc61.19.100 aac
        BPS             : 192908
        DURATION        : 00:24:12.184000000
        NUMBER_OF_FRAMES: 68072
        NUMBER_OF_BYTES : 35017350
        _STATISTICS_WRITING_APP: mkvpropedit v66.0.0 ('Josie') 64-bit
        _STATISTICS_WRITING_DATE_UTC: 2025-06-28 14:19:46
        _STATISTICS_TAGS: BPS DURATION NUMBER_OF_FRAMES NUMBER_OF_BYTES
Input #1, mov,mp4,m4a,3gp,3g2,mj2, from 'G:\Аниме\Онгоинги\!_37_Зима_2025\JamClub\100 девушек, которые очень-очень-очень-очень-очень сильно тебя любят\ТВ-2\JamClub_The_100_Girlfriends_Who_Really_Really_Really_Really_REALLY_2_10.mp4':
  Metadata:
    major_brand     : isom
    minor_version   : 512
    compatible_brands: isomiso2avc1mp41
    encoder         : Lavf60.16.100
  Duration: 00:24:12.20, start: 0.000000, bitrate: 3545 kb/s
  Stream #1:0[0x1](und): Video: h264 (High) (avc1 / 0x31637661), yuv420p(progressive), 1920x1080 [SAR 1:1 DAR 16:9], 3347 kb/s, 23.98 fps, 23.98 tbr, 90k tbn (default)
      Metadata:
        handler_name    : VideoHandler
        vendor_id       : [0][0][0][0]
  Stream #1:1[0x2](eng): Audio: aac (LC) (mp4a / 0x6134706D), 48000 Hz, stereo, fltp, 191 kb/s (default)
      Metadata:
        handler_name    : SoundHandler
        vendor_id       : [0][0][0][0]
Stream mapping:
  Stream #0:0 (hevc) -> settb:default
  Stream #1:0 (h264) -> settb:default
  ssim:default -> Stream #0:0 (wrapped_avframe)
  Stream #0:1 -> #0:1 (aac (native) -> pcm_s16le (native))
Output #0, null, to 'pipe:':
  Metadata:
    COMPATIBLE_BRANDS: isomiso2avc1mp41
    MAJOR_BRAND     : isom
    MINOR_VERSION   : 512
    encoder         : Lavf61.7.100
  Stream #0:0: Video: wrapped_avframe, yuv420p10le(tv, bt709, progressive), 1920x1080 [SAR 1:1 DAR 16:9], q=2-31, 200 kb/s, 23.98 fps, 23.98 tbn
      Metadata:
        encoder         : Lavc61.19.100 wrapped_avframe
  Stream #0:1(eng): Audio: pcm_s16le, 48000 Hz, stereo, s16, 1536 kb/s (default)
      Metadata:
        HANDLER_NAME    : SoundHandler
        VENDOR_ID       : [0][0][0][0]
        _STATISTICS_TAGS: BPS DURATION NUMBER_OF_FRAMES NUMBER_OF_BYTES
        BPS             : 192908
        DURATION        : 00:24:12.184000000
        NUMBER_OF_FRAMES: 68072
        NUMBER_OF_BYTES : 35017350
        _STATISTICS_WRITING_APP: mkvpropedit v66.0.0 ('Josie') 64-bit
        _STATISTICS_WRITING_DATE_UTC: 2025-06-28 14:19:46
        encoder         : Lavc61.19.100 pcm_s16le
frame=  113 fps=0.0 q=-0.0 size=N/A time=00:00:04.71 bitrate=N/A speed=9.21x    frame=  274 fps=268 q=-0.0 size=N/A time=00:00:11.42 bitrate=N/A speed=11.2x    frame=  479 fps=310 q=-0.0 size=N/A time=00:00:19.97 bitrate=N/A speed=12.9x    frame=  654 fps=318 q=-0.0 size=N/A time=00:00:27.27 bitrate=N/A speed=13.3x    frame=  891 fps=347 q=-0.0 size=N/A time=00:00:37.16 bitrate=N/A speed=14.5x    frame= 1109 fps=358 q=-0.0 size=N/A time=00:00:46.25 bitrate=N/A speed=14.9x    frame= 1375 fps=381 q=-0.0 size=N/A time=00:00:57.34 bitrate=N/A speed=15.9x    frame= 1615 fps=391 q=-0.0 size=N/A time=00:01:07.35 bitrate=N/A speed=16.3x    frame= 1843 fps=396 q=-0.0 size=N/A time=00:01:16.86 bitrate=N/A speed=16.5x    frame= 2060 fps=399 q=-0.0 size=N/A time=00:01:25.91 bitrate=N/A speed=16.6x    frame= 2275 fps=401 q=-0.0 size=N/A time=00:01:34.88 bitrate=N/A speed=16.7x    frame= 2495 fps=402 q=-0.0 size=N/A time=00:01:44.06 bitrate=N/A speed=16.8x    frame= 2688 fps=400 q=-0.0 size=N/A time=00:01:52.11 bitrate=N/A speed=16.7x    frame= 2921 fps=404 q=-0.0 size=N/A time=00:02:01.83 bitrate=N/A speed=16.9x    frame= 3146 fps=406 q=-0.0 size=N/A time=00:02:11.21 bitrate=N/A speed=16.9x    frame= 3317 fps=402 q=-0.0 size=N/A time=00:02:18.34 bitrate=N/A speed=16.8x    frame= 3516 fps=400 q=-0.0 size=N/A time=00:02:26.64 bitrate=N/A speed=16.7x    frame= 3750 fps=404 q=-0.0 size=N/A time=00:02:36.40 bitrate=N/A speed=16.8x    frame= 3959 fps=404 q=-0.0 size=N/A time=00:02:45.12 bitrate=N/A speed=16.8x    frame= 4179 fps=405 q=-0.0 size=N/A time=00:02:54.29 bitrate=N/A speed=16.9x    frame= 4403 fps=406 q=-0.0 size=N/A time=00:03:03.64 bitrate=N/A speed=16.9x    frame= 4596 fps=405 q=-0.0 size=N/A time=00:03:11.69 bitrate=N/A speed=16.9x    frame= 4828 fps=407 q=-0.0 size=N/A time=00:03:21.36 bitrate=N/A speed=  17x    frame= 5010 fps=405 q=-0.0 size=N/A time=00:03:28.95 bitrate=N/A speed=16.9x    frame= 5173 fps=401 q=-0.0 size=N/A time=00:03:35.75 bitrate=N/A speed=16.7x    frame= 5367 fps=400 q=-0.0 size=N/A time=00:03:43.84 bitrate=N/A speed=16.7x    frame= 5525 fps=397 q=-0.0 size=N/A time=00:03:50.43 bitrate=N/A speed=16.5x    frame= 5743 fps=398 q=-0.0 size=N/A time=00:03:59.53 bitrate=N/A speed=16.6x    frame= 6021 fps=402 q=-0.0 size=N/A time=00:04:11.12 bitrate=N/A speed=16.8x    frame= 6293 fps=407 q=-0.0 size=N/A time=00:04:22.47 bitrate=N/A speed=  17x    frame= 6577 fps=411 q=-0.0 size=N/A time=00:04:34.31 bitrate=N/A speed=17.2x    frame= 6857 fps=415 q=-0.0 size=N/A time=00:04:45.99 bitrate=N/A speed=17.3x    frame= 7128 fps=419 q=-0.0 size=N/A time=00:04:57.29 bitrate=N/A speed=17.5x    frame= 7390 fps=421 q=-0.0 size=N/A time=00:05:08.22 bitrate=N/A speed=17.6x    frame= 7607 fps=421 q=-0.0 size=N/A time=00:05:17.27 bitrate=N/A speed=17.6x    frame= 7826 fps=421 q=-0.0 size=N/A time=00:05:26.40 bitrate=N/A speed=17.6x    frame= 8072 fps=423 q=-0.0 size=N/A time=00:05:36.66 bitrate=N/A speed=17.6x    frame= 8286 fps=423 q=-0.0 size=N/A time=00:05:45.59 bitrate=N/A speed=17.6x    frame= 8543 fps=425 q=-0.0 size=N/A time=00:05:56.31 bitrate=N/A speed=17.7x    frame= 8804 fps=426 q=-0.0 size=N/A time=00:06:07.20 bitrate=N/A speed=17.8x    frame= 9069 fps=429 q=-0.0 size=N/A time=00:06:18.25 bitrate=N/A speed=17.9x    frame= 9350 fps=432 q=-0.0 size=N/A time=00:06:29.97 bitrate=N/A speed=  18x    frame= 9614 fps=434 q=-0.0 size=N/A time=00:06:40.98 bitrate=N/A speed=18.1x    frame= 9894 fps=436 q=-0.0 size=N/A time=00:06:52.66 bitrate=N/A speed=18.2x    frame=10150 fps=437 q=-0.0 size=N/A time=00:07:03.33 bitrate=N/A speed=18.2x    frame=10421 fps=439 q=-0.0 size=N/A time=00:07:14.64 bitrate=N/A speed=18.3x    frame=10708 fps=441 q=-0.0 size=N/A time=00:07:26.61 bitrate=N/A speed=18.4x    frame=10986 fps=443 q=-0.0 size=N/A time=00:07:38.20 bitrate=N/A speed=18.5x    frame=11252 fps=445 q=-0.0 size=N/A time=00:07:49.30 bitrate=N/A speed=18.6x    frame=11495 fps=445 q=-0.0 size=N/A time=00:07:59.43 bitrate=N/A speed=18.6x    frame=11752 fps=446 q=-0.0 size=N/A time=00:08:10.15 bitrate=N/A speed=18.6x    frame=11992 fps=447 q=-0.0 size=N/A time=00:08:20.16 bitrate=N/A speed=18.6x    frame=12271 fps=449 q=-0.0 size=N/A time=00:08:31.80 bitrate=N/A speed=18.7x    frame=12535 fps=450 q=-0.0 size=N/A time=00:08:42.81 bitrate=N/A speed=18.8x    frame=12788 fps=451 q=-0.0 size=N/A time=00:08:53.36 bitrate=N/A speed=18.8x    frame=13064 fps=452 q=-0.0 size=N/A time=00:09:04.87 bitrate=N/A speed=18.8x    frame=13325 fps=453 q=-0.0 size=N/A time=00:09:15.76 bitrate=N/A speed=18.9x    frame=13556 fps=453 q=-0.0 size=N/A time=00:09:25.39 bitrate=N/A speed=18.9x    frame=13818 fps=454 q=-0.0 size=N/A time=00:09:36.32 bitrate=N/A speed=18.9x    frame=14073 fps=454 q=-0.0 size=N/A time=00:09:46.96 bitrate=N/A speed=  19x    frame=14339 fps=456 q=-0.0 size=N/A time=00:09:58.05 bitrate=N/A speed=  19x    frame=14617 fps=457 q=-0.0 size=N/A time=00:10:09.65 bitrate=N/A speed=19.1x    frame=14856 fps=457 q=-0.0 size=N/A time=00:10:19.61 bitrate=N/A speed=19.1x    frame=15085 fps=457 q=-0.0 size=N/A time=00:10:29.17 bitrate=N/A speed=19.1x    frame=15302 fps=456 q=-0.0 size=N/A time=00:10:38.22 bitrate=N/A speed=  19x    frame=15573 fps=457 q=-0.0 size=N/A time=00:10:49.52 bitrate=N/A speed=19.1x    frame=15832 fps=458 q=-0.0 size=N/A time=00:11:00.32 bitrate=N/A speed=19.1x    frame=16113 fps=459 q=-0.0 size=N/A time=00:11:12.04 bitrate=N/A speed=19.1x    frame=16391 fps=460 q=-0.0 size=N/A time=00:11:23.64 bitrate=N/A speed=19.2x    frame=16616 fps=460 q=-0.0 size=N/A time=00:11:33.02 bitrate=N/A speed=19.2x    frame=16822 fps=459 q=-0.0 size=N/A time=00:11:41.61 bitrate=N/A speed=19.1x    frame=17045 fps=459 q=-0.0 size=N/A time=00:11:50.91 bitrate=N/A speed=19.1x    frame=17308 fps=460 q=-0.0 size=N/A time=00:12:01.88 bitrate=N/A speed=19.2x    frame=17589 fps=461 q=-0.0 size=N/A time=00:12:13.60 bitrate=N/A speed=19.2x    frame=17851 fps=461 q=-0.0 size=N/A time=00:12:24.53 bitrate=N/A speed=19.2x    frame=18097 fps=462 q=-0.0 size=N/A time=00:12:34.79 bitrate=N/A speed=19.3x    frame=18379 fps=463 q=-0.0 size=N/A time=00:12:46.55 bitrate=N/A speed=19.3x    frame=18641 fps=463 q=-0.0 size=N/A time=00:12:57.48 bitrate=N/A speed=19.3x    frame=18905 fps=464 q=-0.0 size=N/A time=00:13:08.49 bitrate=N/A speed=19.3x    frame=19188 fps=465 q=-0.0 size=N/A time=00:13:20.29 bitrate=N/A speed=19.4x    frame=19462 fps=466 q=-0.0 size=N/A time=00:13:31.72 bitrate=N/A speed=19.4x    frame=19737 fps=467 q=-0.0 size=N/A time=00:13:43.19 bitrate=N/A speed=19.5x    frame=20001 fps=467 q=-0.0 size=N/A time=00:13:54.20 bitrate=N/A speed=19.5x    frame=20236 fps=467 q=-0.0 size=N/A time=00:14:04.00 bitrate=N/A speed=19.5x    frame=20455 fps=467 q=-0.0 size=N/A time=00:14:13.14 bitrate=N/A speed=19.5x    frame=20728 fps=467 q=-0.0 size=N/A time=00:14:24.53 bitrate=N/A speed=19.5x    frame=21006 fps=468 q=-0.0 size=N/A time=00:14:36.12 bitrate=N/A speed=19.5x    frame=21282 fps=469 q=-0.0 size=N/A time=00:14:47.63 bitrate=N/A speed=19.6x    frame=21561 fps=470 q=-0.0 size=N/A time=00:14:59.27 bitrate=N/A speed=19.6x    frame=21823 fps=470 q=-0.0 size=N/A time=00:15:10.20 bitrate=N/A speed=19.6x    frame=22071 fps=470 q=-0.0 size=N/A time=00:15:20.54 bitrate=N/A speed=19.6x    frame=22313 fps=470 q=-0.0 size=N/A time=00:15:30.63 bitrate=N/A speed=19.6x    frame=22584 fps=471 q=-0.0 size=N/A time=00:15:41.94 bitrate=N/A speed=19.6x    frame=22839 fps=471 q=-0.0 size=N/A time=00:15:52.57 bitrate=N/A speed=19.6x    frame=23090 fps=471 q=-0.0 size=N/A time=00:16:03.04 bitrate=N/A speed=19.6x    frame=23357 fps=472 q=-0.0 size=N/A time=00:16:14.18 bitrate=N/A speed=19.7x    frame=23600 fps=472 q=-0.0 size=N/A time=00:16:24.31 bitrate=N/A speed=19.7x    frame=23837 fps=471 q=-0.0 size=N/A time=00:16:34.20 bitrate=N/A speed=19.7x    frame=24119 fps=472 q=-0.0 size=N/A time=00:16:45.96 bitrate=N/A speed=19.7x    frame=24383 fps=473 q=-0.0 size=N/A time=00:16:56.97 bitrate=N/A speed=19.7x    frame=24657 fps=473 q=-0.0 size=N/A time=00:17:08.40 bitrate=N/A speed=19.7x    frame=24911 fps=473 q=-0.0 size=N/A time=00:17:18.99 bitrate=N/A speed=19.7x    frame=25174 fps=474 q=-0.0 size=N/A time=00:17:29.96 bitrate=N/A speed=19.8x    frame=25428 fps=474 q=-0.0 size=N/A time=00:17:40.55 bitrate=N/A speed=19.8x    frame=25676 fps=474 q=-0.0 size=N/A time=00:17:50.90 bitrate=N/A speed=19.8x    frame=25930 fps=474 q=-0.0 size=N/A time=00:18:01.49 bitrate=N/A speed=19.8x    frame=26197 fps=475 q=-0.0 size=N/A time=00:18:12.63 bitrate=N/A speed=19.8x    frame=26462 fps=475 q=-0.0 size=N/A time=00:18:23.68 bitrate=N/A speed=19.8x    frame=26708 fps=475 q=-0.0 size=N/A time=00:18:33.94 bitrate=N/A speed=19.8x    frame=26941 fps=475 q=-0.0 size=N/A time=00:18:43.66 bitrate=N/A speed=19.8x    frame=27192 fps=475 q=-0.0 size=N/A time=00:18:54.13 bitrate=N/A speed=19.8x    frame=27477 fps=476 q=-0.0 size=N/A time=00:19:06.01 bitrate=N/A speed=19.8x    frame=27735 fps=476 q=-0.0 size=N/A time=00:19:16.78 bitrate=N/A speed=19.8x    frame=28013 fps=476 q=-0.0 size=N/A time=00:19:28.37 bitrate=N/A speed=19.9x    frame=28296 fps=477 q=-0.0 size=N/A time=00:19:40.17 bitrate=N/A speed=19.9x    frame=28509 fps=476 q=-0.0 size=N/A time=00:19:49.06 bitrate=N/A speed=19.9x    frame=28787 fps=477 q=-0.0 size=N/A time=00:20:00.65 bitrate=N/A speed=19.9x    frame=29071 fps=478 q=-0.0 size=N/A time=00:20:12.50 bitrate=N/A speed=19.9x    frame=29348 fps=478 q=-0.0 size=N/A time=00:20:24.05 bitrate=N/A speed=19.9x    frame=29579 fps=478 q=-0.0 size=N/A time=00:20:33.69 bitrate=N/A speed=19.9x    frame=29826 fps=478 q=-0.0 size=N/A time=00:20:43.99 bitrate=N/A speed=19.9x    frame=30040 fps=477 q=-0.0 size=N/A time=00:20:52.91 bitrate=N/A speed=19.9x    frame=30255 fps=477 q=-0.0 size=N/A time=00:21:01.88 bitrate=N/A speed=19.9x    frame=30522 fps=477 q=-0.0 size=N/A time=00:21:13.02 bitrate=N/A speed=19.9x    frame=30783 fps=477 q=-0.0 size=N/A time=00:21:23.90 bitrate=N/A speed=19.9x    frame=31042 fps=478 q=-0.0 size=N/A time=00:21:34.71 bitrate=N/A speed=19.9x    frame=31316 fps=478 q=-0.0 size=N/A time=00:21:46.13 bitrate=N/A speed=19.9x    frame=31590 fps=478 q=-0.0 size=N/A time=00:21:57.56 bitrate=N/A speed=  20x    frame=31869 fps=479 q=-0.0 size=N/A time=00:22:09.20 bitrate=N/A speed=  20x    frame=32138 fps=479 q=-0.0 size=N/A time=00:22:20.42 bitrate=N/A speed=  20x    frame=32392 fps=479 q=-0.0 size=N/A time=00:22:31.01 bitrate=N/A speed=  20x    frame=32657 fps=479 q=-0.0 size=N/A time=00:22:42.06 bitrate=N/A speed=  20x    frame=32844 fps=479 q=-0.0 size=N/A time=00:22:49.86 bitrate=N/A speed=  20x    frame=33039 fps=478 q=-0.0 size=N/A time=00:22:58.00 bitrate=N/A speed=19.9x    frame=33282 fps=478 q=-0.0 size=N/A time=00:23:08.13 bitrate=N/A speed=19.9x    frame=33475 fps=477 q=-0.0 size=N/A time=00:23:16.18 bitrate=N/A speed=19.9x    frame=33669 fps=476 q=-0.0 size=N/A time=00:23:24.27 bitrate=N/A speed=19.9x    frame=33879 fps=476 q=-0.0 size=N/A time=00:23:33.03 bitrate=N/A speed=19.8x    frame=34048 fps=475 q=-0.0 size=N/A time=00:23:40.08 bitrate=N/A speed=19.8x    frame=34164 fps=473 q=-0.0 size=N/A time=00:23:44.92 bitrate=N/A speed=19.7x    frame=34273 fps=471 q=-0.0 size=N/A time=00:23:49.46 bitrate=N/A speed=19.6x    frame=34387 fps=469 q=-0.0 size=N/A time=00:23:54.22 bitrate=N/A speed=19.6x    frame=34517 fps=468 q=-0.0 size=N/A time=00:23:59.64 bitrate=N/A speed=19.5x    frame=34725 fps=467 q=-0.0 size=N/A time=00:24:08.32 bitrate=N/A speed=19.5x    [Parsed_ssim_10 @ 000001b360a0e0c0] SSIM Y:0.996019 (24.000321) U:0.995438 (23.408003) V:0.994959 (22.974496) All:0.995746 (23.711520)
[out#0/null @ 000001b359e12f00] video:14960KiB audio:272288KiB subtitle:0KiB other streams:0KiB global headers:0KiB muxing overhead: unknown
frame=34817 fps=467 q=-0.0 Lsize=N/A time=00:24:12.15 bitrate=N/A speed=19.5x    
